<svg version="1.1" xmlns="http://www.w3.org/2000/svg" xmlns:xlink="http://www.w3.org/1999/xlink" xmlns:a="http://ns.adobe.com/AdobeSVGViewerExtensions/3.0/" x="0px" y="0px" width="128px" height="128px" viewBox="0 0 128 128" enable-background="new 0 0 128 128" xml:space="preserve"><defs></defs><g><defs><rect id="SVGID_1_" width="128" height="128"/></defs><clipPath id="SVGID_2_"><use xlink:href="#SVGID_1_" overflow="visible"/></clipPath><path clip-path="url(#SVGID_2_)" fill="#ffffff" d="M64,3c33.636,0,61,27.364,61,61c0,33.635-27.364,61-61,61 C30.364,125,3,97.635,3,64C3,30.364,30.364,3,64,3 M64,0C28.654,0,0,28.654,0,64c0,35.346,28.654,64,64,64 c35.346,0,64-28.654,64-64C128,28.654,99.346,0,64,0"/><path clip-path="url(#SVGID_2_)" fill="none" stroke="#ffffff" stroke-width="3" stroke-linecap="round" stroke-miterlimit="10" d="  M83.817,32.017H44.182c-1.717,3.554-2.689,12.733-2.689,16.583c0,12.425,10.081,22.505,22.507,22.505S86.507,61.026,86.507,48.6  C86.507,44.75,85.535,35.571,83.817,32.017z"/><line clip-path="url(#SVGID_2_)" fill="none" stroke="#ffffff" stroke-width="3" stroke-linecap="round" stroke-miterlimit="10" x1="64" y1="71.104" x2="64" y2="95.388"/><line clip-path="url(#SVGID_2_)" fill="none" stroke="#ffffff" stroke-width="3" stroke-linecap="round" stroke-miterlimit="10" x1="53.932" y1="95.983" x2="74.068" y2="95.983"/></g></svg>