<svg version="1.1" id="Layer_1" xmlns="http://www.w3.org/2000/svg" xmlns:xlink="http://www.w3.org/1999/xlink" x="0px" y="0px" width="36px" height="36px" viewBox="0 0 36 36" enable-background="new 0 0 36 36" xml:space="preserve"><g><g><path fill="#FFFFFF" d="M18,0.5C8.3,0.5,0.5,8.3,0.5,18S8.3,35.5,18,35.5S35.5,27.7,35.5,18S27.7,0.5,18,0.5z M22.3,12h-2.1	c-0.4,0-0.8,0.4-0.8,0.7c0,0.3,0,2.1,0,2.1s2.6,0,2.9,0c-0.1,1.6-0.4,3.1-0.4,3.1h-2.6v9.2h-3.8V18h-1.9v-3.1h1.9c0,0,0-2.1,0-2.5	c0-0.5-0.1-3.6,3.9-3.6h2.8V12z"/></g></g></svg>