<svg version="1.1" id="Layer_1" xmlns="http://www.w3.org/2000/svg" xmlns:xlink="http://www.w3.org/1999/xlink" x="0px" y="0px" width="130px" height="130px" viewBox="0 0 130 130" enable-background="new 0 0 130 130" xml:space="preserve"><path fill="#ffffff" d="M65,0.7c-35.3,0-64,28.7-64,64c0,35.3,28.7,64,64,64s64-28.7,64-64C129,29.4,100.3,0.7,65,0.7z M65,125.7 c-33.6,0-61-27.4-61-61c0-33.6,27.4-61,61-61s61,27.4,61,61C126,98.4,98.6,125.7,65,125.7z M65,29.1c-19.7,0-35.6,15.9-35.6,35.6 c0,19.7,15.9,35.6,35.6,35.6s35.6-15.9,35.6-35.6C100.6,45.1,84.7,29.1,65,29.1z M65,97.2c-17.9,0-32.5-14.6-32.5-32.5 S47.1,32.2,65,32.2s32.5,14.6,32.5,32.5S82.9,97.2,65,97.2z M78.3,44.3c-0.7-0.5-1.7-0.3-2.1,0.5L64.6,62.7l-11.2-9.4 c-0.7-0.6-1.6-0.5-2.2,0.2c-0.6,0.7-0.5,1.6,0.2,2.2l13.9,11.7l13.4-20.8C79.2,45.8,79,44.8,78.3,44.3z"/></svg>