<svg version="1.1" id="Layer_1" xmlns="http://www.w3.org/2000/svg" xmlns:xlink="http://www.w3.org/1999/xlink" x="0px" y="0px" width="36px" height="36px" viewBox="0 0 36 36" enable-background="new 0 0 36 36" xml:space="preserve"><g><g><path fill="#FFFFFF" d="M18,0.5C8.3,0.5,0.5,8.3,0.5,18S8.3,35.5,18,35.5S35.5,27.7,35.5,18S27.7,0.5,18,0.5z M26.5,18.8 c-1.8,7.4-14.1,10.5-19.7,2.9c2.2,2.1,5.9,2.2,8.3-0.2c-1.4,0.2-2.4-1.2-0.7-1.9c-1.5,0.2-2.4-0.7-2.8-1.3 c0.4-0.4,0.8-0.6,1.5-0.6c-1.7-0.4-2.3-1.2-2.5-2.2c0.5-0.1,1.1-0.2,1.4-0.2c-1.5-0.8-2-1.9-1.9-2.8c2.6,1,4.3,1.8,5.7,2.5 c0.5,0.3,1.1,0.7,1.7,1.4c0.8-2.1,1.8-4.3,3.5-5.4c0,0.2-0.2,0.5-0.3,0.7c0.5-0.4,1.1-0.7,1.7-0.8c-0.1,0.5-0.8,0.7-1.2,0.9 c0.3-0.1,2-0.8,2.2-0.4c0.2,0.5-1.2,0.7-1.4,0.8c-0.2,0.1-0.3,0.1-0.5,0.2c2.1-0.2,4.2,1.5,4.7,3.7c0,0.2,0.1,0.3,0.1,0.5 c0.8,0.3,2.2,0,2.6-0.3c-0.3,0.8-1.2,1.3-2.4,1.4c0.6,0.3,1.7,0.4,2.5,0.3C28.7,18.4,27.9,18.8,26.5,18.8z"/></g></g></svg>